<?xml version="1.0" encoding="UTF-8" standalone="no"?>
<!DOCTYPE svg PUBLIC "-//W3C//DTD SVG 1.1//EN"
 "http://www.w3.org/Graphics/SVG/1.1/DTD/svg11.dtd">
<!-- Generated by graphviz version 7.0.1 (20221109.1506)
 -->
<!-- Title: ast Pages: 1 -->
<svg width="960pt" height="908pt"
 viewBox="0.00 0.00 960.00 908.00" xmlns="http://www.w3.org/2000/svg" xmlns:xlink="http://www.w3.org/1999/xlink">
<g id="graph0" class="graph" transform="scale(1 1) rotate(0) translate(4 904)">
<title>ast</title>
<polygon fill="white" stroke="none" points="-4,4 -4,-904 956,-904 956,4 -4,4"/>
<!-- N1 -->
<g id="node1" class="node">
<title>N1</title>
<polygon fill="none" stroke="black" points="505,-792 443,-792 443,-756 505,-756 505,-792"/>
<text text-anchor="middle" x="474" y="-770.3" font-family="Times,serif" font-size="14.00">InstrList</text>
</g>
<!-- N2 -->
<g id="node4" class="node">
<title>N2</title>
<polygon fill="none" stroke="black" points="180,-684 126,-684 126,-648 180,-648 180,-684"/>
<text text-anchor="middle" x="153" y="-662.3" font-family="Times,serif" font-size="14.00">Affect</text>
</g>
<!-- N1&#45;&gt;N2 -->
<g id="edge3" class="edge">
<title>N1&#45;&gt;N2</title>
<path fill="none" stroke="black" d="M442.64,-762.64C383.41,-743.08 255.29,-700.78 191.17,-679.61"/>
<polygon fill="black" stroke="black" points="192.37,-676.32 181.78,-676.5 190.18,-682.96 192.37,-676.32"/>
</g>
<!-- N5 -->
<g id="node7" class="node">
<title>N5</title>
<polygon fill="none" stroke="black" points="432,-684 378,-684 378,-648 432,-648 432,-684"/>
<text text-anchor="middle" x="405" y="-662.3" font-family="Times,serif" font-size="14.00">Affect</text>
</g>
<!-- N1&#45;&gt;N5 -->
<g id="edge6" class="edge">
<title>N1&#45;&gt;N5</title>
<path fill="none" stroke="black" d="M462.91,-755.97C452.01,-739.22 435.21,-713.41 422.51,-693.89"/>
<polygon fill="black" stroke="black" points="425.5,-692.08 417.11,-685.61 419.64,-695.9 425.5,-692.08"/>
</g>
<!-- N8 -->
<g id="node25" class="node">
<title>N8</title>
<polygon fill="none" stroke="black" points="640.5,-684 563.5,-684 563.5,-648 640.5,-648 640.5,-684"/>
<text text-anchor="middle" x="602" y="-662.3" font-family="Times,serif" font-size="14.00">IfThenElse</text>
</g>
<!-- N1&#45;&gt;N8 -->
<g id="edge24" class="edge">
<title>N1&#45;&gt;N8</title>
<path fill="none" stroke="black" d="M494.85,-755.73C515.96,-738.25 548.78,-711.07 572.54,-691.4"/>
<polygon fill="black" stroke="black" points="574.52,-694.3 579.99,-685.22 570.06,-688.91 574.52,-694.3"/>
</g>
<!-- N26 -->
<g id="node27" class="node">
<title>N26</title>
<polygon fill="none" stroke="black" points="889,-684 835,-684 835,-648 889,-648 889,-684"/>
<text text-anchor="middle" x="862" y="-662.3" font-family="Times,serif" font-size="14.00">print</text>
</g>
<!-- N1&#45;&gt;N26 -->
<g id="edge26" class="edge">
<title>N1&#45;&gt;N26</title>
<path fill="none" stroke="black" d="M505.42,-764.42C575.95,-745.15 746.66,-698.51 823.45,-677.53"/>
<polygon fill="black" stroke="black" points="824.32,-680.92 833.04,-674.91 822.47,-674.17 824.32,-680.92"/>
</g>
<!-- N3 -->
<g id="node2" class="node">
<title>N3</title>
<polygon fill="none" stroke="black" points="54,-576 0,-576 0,-540 54,-540 54,-576"/>
<text text-anchor="middle" x="27" y="-554.3" font-family="Times,serif" font-size="14.00">a</text>
</g>
<!-- N4 -->
<g id="node3" class="node">
<title>N4</title>
<polygon fill="none" stroke="black" points="180,-576 126,-576 126,-540 180,-540 180,-576"/>
<text text-anchor="middle" x="153" y="-554.3" font-family="Times,serif" font-size="14.00">2</text>
</g>
<!-- N2&#45;&gt;N3 -->
<g id="edge1" class="edge">
<title>N2&#45;&gt;N3</title>
<path fill="none" stroke="black" d="M132.48,-647.73C111.79,-630.33 79.67,-603.31 56.31,-583.66"/>
<polygon fill="black" stroke="black" points="58.58,-580.99 48.67,-577.23 54.07,-586.35 58.58,-580.99"/>
</g>
<!-- N2&#45;&gt;N4 -->
<g id="edge2" class="edge">
<title>N2&#45;&gt;N4</title>
<path fill="none" stroke="black" d="M153,-647.97C153,-631.76 153,-607.06 153,-587.79"/>
<polygon fill="black" stroke="black" points="156.5,-587.85 153,-577.85 149.5,-587.85 156.5,-587.85"/>
</g>
<!-- N6 -->
<g id="node5" class="node">
<title>N6</title>
<polygon fill="none" stroke="black" points="306,-576 252,-576 252,-540 306,-540 306,-576"/>
<text text-anchor="middle" x="279" y="-554.3" font-family="Times,serif" font-size="14.00">b</text>
</g>
<!-- N7 -->
<g id="node6" class="node">
<title>N7</title>
<polygon fill="none" stroke="black" points="432,-576 378,-576 378,-540 432,-540 432,-576"/>
<text text-anchor="middle" x="405" y="-554.3" font-family="Times,serif" font-size="14.00">0</text>
</g>
<!-- N5&#45;&gt;N6 -->
<g id="edge4" class="edge">
<title>N5&#45;&gt;N6</title>
<path fill="none" stroke="black" d="M384.48,-647.73C363.79,-630.33 331.67,-603.31 308.31,-583.66"/>
<polygon fill="black" stroke="black" points="310.58,-580.99 300.67,-577.23 306.07,-586.35 310.58,-580.99"/>
</g>
<!-- N5&#45;&gt;N7 -->
<g id="edge5" class="edge">
<title>N5&#45;&gt;N7</title>
<path fill="none" stroke="black" d="M405,-647.97C405,-631.76 405,-607.06 405,-587.79"/>
<polygon fill="black" stroke="black" points="408.5,-587.85 405,-577.85 401.5,-587.85 408.5,-587.85"/>
</g>
<!-- N9 -->
<g id="node8" class="node">
<title>N9</title>
<polygon fill="none" stroke="black" points="558,-576 504,-576 504,-540 558,-540 558,-576"/>
<text text-anchor="middle" x="531" y="-554.3" font-family="Times,serif" font-size="14.00">a</text>
</g>
<!-- N10 -->
<g id="node9" class="node">
<title>N10</title>
<polygon fill="none" stroke="black" points="692,-576 630,-576 630,-540 692,-540 692,-576"/>
<text text-anchor="middle" x="661" y="-554.3" font-family="Times,serif" font-size="14.00">InstrList</text>
</g>
<!-- N11 -->
<g id="node20" class="node">
<title>N11</title>
<polygon fill="none" stroke="black" points="688,-468 634,-468 634,-432 688,-432 688,-468"/>
<text text-anchor="middle" x="661" y="-446.3" font-family="Times,serif" font-size="14.00">Affect</text>
</g>
<!-- N10&#45;&gt;N11 -->
<g id="edge17" class="edge">
<title>N10&#45;&gt;N11</title>
<path fill="none" stroke="black" d="M661,-539.97C661,-523.76 661,-499.06 661,-479.79"/>
<polygon fill="black" stroke="black" points="664.5,-479.85 661,-469.85 657.5,-479.85 664.5,-479.85"/>
</g>
<!-- N12 -->
<g id="node10" class="node">
<title>N12</title>
<polygon fill="none" stroke="black" points="564,-360 510,-360 510,-324 564,-324 564,-360"/>
<text text-anchor="middle" x="537" y="-338.3" font-family="Times,serif" font-size="14.00">b</text>
</g>
<!-- N15 -->
<g id="node11" class="node">
<title>N15</title>
<polygon fill="none" stroke="black" points="501,-144 447,-144 447,-108 501,-108 501,-144"/>
<text text-anchor="middle" x="474" y="-122.3" font-family="Times,serif" font-size="14.00">1</text>
</g>
<!-- N16 -->
<g id="node12" class="node">
<title>N16</title>
<polygon fill="none" stroke="black" points="627,-144 573,-144 573,-108 627,-108 627,-144"/>
<text text-anchor="middle" x="600" y="-122.3" font-family="Times,serif" font-size="14.00">2</text>
</g>
<!-- N14 -->
<g id="node13" class="node">
<title>N14</title>
<polygon fill="none" stroke="black" points="627,-252 573,-252 573,-216 627,-216 627,-252"/>
<text text-anchor="middle" x="600" y="-230.3" font-family="Times,serif" font-size="14.00">+</text>
</g>
<!-- N14&#45;&gt;N15 -->
<g id="edge7" class="edge">
<title>N14&#45;&gt;N15</title>
<path fill="none" stroke="black" d="M579.48,-215.73C558.79,-198.33 526.67,-171.31 503.31,-151.66"/>
<polygon fill="black" stroke="black" points="505.58,-148.99 495.67,-145.23 501.07,-154.35 505.58,-148.99"/>
</g>
<!-- N14&#45;&gt;N16 -->
<g id="edge8" class="edge">
<title>N14&#45;&gt;N16</title>
<path fill="none" stroke="black" d="M600,-215.97C600,-199.76 600,-175.06 600,-155.79"/>
<polygon fill="black" stroke="black" points="603.5,-155.85 600,-145.85 596.5,-155.85 603.5,-155.85"/>
</g>
<!-- N19 -->
<g id="node14" class="node">
<title>N19</title>
<polygon fill="none" stroke="black" points="690,-36 636,-36 636,0 690,0 690,-36"/>
<text text-anchor="middle" x="663" y="-14.3" font-family="Times,serif" font-size="14.00">3</text>
</g>
<!-- N20 -->
<g id="node15" class="node">
<title>N20</title>
<polygon fill="none" stroke="black" points="816,-36 762,-36 762,0 816,0 816,-36"/>
<text text-anchor="middle" x="789" y="-14.3" font-family="Times,serif" font-size="14.00">4</text>
</g>
<!-- N18 -->
<g id="node16" class="node">
<title>N18</title>
<polygon fill="none" stroke="black" points="753,-144 699,-144 699,-108 753,-108 753,-144"/>
<text text-anchor="middle" x="726" y="-122.3" font-family="Times,serif" font-size="14.00">+</text>
</g>
<!-- N18&#45;&gt;N19 -->
<g id="edge9" class="edge">
<title>N18&#45;&gt;N19</title>
<path fill="none" stroke="black" d="M715.88,-107.97C705.97,-91.3 690.72,-65.65 679.14,-46.16"/>
<polygon fill="black" stroke="black" points="682.2,-44.45 674.08,-37.64 676.18,-48.03 682.2,-44.45"/>
</g>
<!-- N18&#45;&gt;N20 -->
<g id="edge10" class="edge">
<title>N18&#45;&gt;N20</title>
<path fill="none" stroke="black" d="M736.12,-107.97C746.03,-91.3 761.28,-65.65 772.86,-46.16"/>
<polygon fill="black" stroke="black" points="775.82,-48.03 777.92,-37.64 769.8,-44.45 775.82,-48.03"/>
</g>
<!-- N21 -->
<g id="node17" class="node">
<title>N21</title>
<polygon fill="none" stroke="black" points="879,-144 825,-144 825,-108 879,-108 879,-144"/>
<text text-anchor="middle" x="852" y="-122.3" font-family="Times,serif" font-size="14.00">5</text>
</g>
<!-- N17 -->
<g id="node18" class="node">
<title>N17</title>
<polygon fill="none" stroke="black" points="753,-252 699,-252 699,-216 753,-216 753,-252"/>
<text text-anchor="middle" x="726" y="-230.3" font-family="Times,serif" font-size="14.00">*</text>
</g>
<!-- N17&#45;&gt;N18 -->
<g id="edge11" class="edge">
<title>N17&#45;&gt;N18</title>
<path fill="none" stroke="black" d="M726,-215.97C726,-199.76 726,-175.06 726,-155.79"/>
<polygon fill="black" stroke="black" points="729.5,-155.85 726,-145.85 722.5,-155.85 729.5,-155.85"/>
</g>
<!-- N17&#45;&gt;N21 -->
<g id="edge12" class="edge">
<title>N17&#45;&gt;N21</title>
<path fill="none" stroke="black" d="M746.52,-215.73C767.21,-198.33 799.33,-171.31 822.69,-151.66"/>
<polygon fill="black" stroke="black" points="824.93,-154.35 830.33,-145.23 820.42,-148.99 824.93,-154.35"/>
</g>
<!-- N13 -->
<g id="node19" class="node">
<title>N13</title>
<polygon fill="none" stroke="black" points="690,-360 636,-360 636,-324 690,-324 690,-360"/>
<text text-anchor="middle" x="663" y="-338.3" font-family="Times,serif" font-size="14.00">+</text>
</g>
<!-- N13&#45;&gt;N14 -->
<g id="edge13" class="edge">
<title>N13&#45;&gt;N14</title>
<path fill="none" stroke="black" d="M652.88,-323.97C642.97,-307.3 627.72,-281.65 616.14,-262.16"/>
<polygon fill="black" stroke="black" points="619.2,-260.45 611.08,-253.64 613.18,-264.03 619.2,-260.45"/>
</g>
<!-- N13&#45;&gt;N17 -->
<g id="edge14" class="edge">
<title>N13&#45;&gt;N17</title>
<path fill="none" stroke="black" d="M673.12,-323.97C683.03,-307.3 698.28,-281.65 709.86,-262.16"/>
<polygon fill="black" stroke="black" points="712.82,-264.03 714.92,-253.64 706.8,-260.45 712.82,-264.03"/>
</g>
<!-- N11&#45;&gt;N12 -->
<g id="edge15" class="edge">
<title>N11&#45;&gt;N12</title>
<path fill="none" stroke="black" d="M640.8,-431.73C620.44,-414.33 588.84,-387.31 565.84,-367.66"/>
<polygon fill="black" stroke="black" points="568.22,-365.08 558.34,-361.24 563.67,-370.4 568.22,-365.08"/>
</g>
<!-- N11&#45;&gt;N13 -->
<g id="edge16" class="edge">
<title>N11&#45;&gt;N13</title>
<path fill="none" stroke="black" d="M661.32,-431.97C661.63,-415.76 662.09,-391.06 662.46,-371.79"/>
<polygon fill="black" stroke="black" points="665.95,-371.92 662.64,-361.85 658.96,-371.79 665.95,-371.92"/>
</g>
<!-- N22 -->
<g id="node21" class="node">
<title>N22</title>
<polygon fill="none" stroke="black" points="826,-576 764,-576 764,-540 826,-540 826,-576"/>
<text text-anchor="middle" x="795" y="-554.3" font-family="Times,serif" font-size="14.00">InstrList</text>
</g>
<!-- N23 -->
<g id="node24" class="node">
<title>N23</title>
<polygon fill="none" stroke="black" points="822,-468 768,-468 768,-432 822,-432 822,-468"/>
<text text-anchor="middle" x="795" y="-446.3" font-family="Times,serif" font-size="14.00">Affect</text>
</g>
<!-- N22&#45;&gt;N23 -->
<g id="edge20" class="edge">
<title>N22&#45;&gt;N23</title>
<path fill="none" stroke="black" d="M795,-539.97C795,-523.76 795,-499.06 795,-479.79"/>
<polygon fill="black" stroke="black" points="798.5,-479.85 795,-469.85 791.5,-479.85 798.5,-479.85"/>
</g>
<!-- N24 -->
<g id="node22" class="node">
<title>N24</title>
<polygon fill="none" stroke="black" points="820,-360 766,-360 766,-324 820,-324 820,-360"/>
<text text-anchor="middle" x="793" y="-338.3" font-family="Times,serif" font-size="14.00">b</text>
</g>
<!-- N25 -->
<g id="node23" class="node">
<title>N25</title>
<polygon fill="none" stroke="black" points="946,-360 892,-360 892,-324 946,-324 946,-360"/>
<text text-anchor="middle" x="919" y="-338.3" font-family="Times,serif" font-size="14.00">2</text>
</g>
<!-- N23&#45;&gt;N24 -->
<g id="edge18" class="edge">
<title>N23&#45;&gt;N24</title>
<path fill="none" stroke="black" d="M794.68,-431.97C794.37,-415.76 793.91,-391.06 793.54,-371.79"/>
<polygon fill="black" stroke="black" points="797.04,-371.79 793.36,-361.85 790.05,-371.92 797.04,-371.79"/>
</g>
<!-- N23&#45;&gt;N25 -->
<g id="edge19" class="edge">
<title>N23&#45;&gt;N25</title>
<path fill="none" stroke="black" d="M815.2,-431.73C835.56,-414.33 867.16,-387.31 890.16,-367.66"/>
<polygon fill="black" stroke="black" points="892.33,-370.4 897.66,-361.24 887.78,-365.08 892.33,-370.4"/>
</g>
<!-- N8&#45;&gt;N9 -->
<g id="edge21" class="edge">
<title>N8&#45;&gt;N9</title>
<path fill="none" stroke="black" d="M590.59,-647.97C579.38,-631.22 562.09,-605.41 549.01,-585.89"/>
<polygon fill="black" stroke="black" points="551.93,-583.96 543.46,-577.6 546.11,-587.85 551.93,-583.96"/>
</g>
<!-- N8&#45;&gt;N10 -->
<g id="edge22" class="edge">
<title>N8&#45;&gt;N10</title>
<path fill="none" stroke="black" d="M611.48,-647.97C620.76,-631.3 635.04,-605.65 645.88,-586.16"/>
<polygon fill="black" stroke="black" points="648.81,-588.1 650.61,-577.66 642.69,-584.7 648.81,-588.1"/>
</g>
<!-- N8&#45;&gt;N22 -->
<g id="edge23" class="edge">
<title>N8&#45;&gt;N22</title>
<path fill="none" stroke="black" d="M633.44,-647.73C666.24,-629.72 717.83,-601.39 753.85,-581.6"/>
<polygon fill="black" stroke="black" points="755.17,-584.87 762.25,-576.99 751.8,-578.73 755.17,-584.87"/>
</g>
<!-- N27 -->
<g id="node26" class="node">
<title>N27</title>
<polygon fill="none" stroke="black" points="952,-576 898,-576 898,-540 952,-540 952,-576"/>
<text text-anchor="middle" x="925" y="-554.3" font-family="Times,serif" font-size="14.00">b</text>
</g>
<!-- N26&#45;&gt;N27 -->
<g id="edge25" class="edge">
<title>N26&#45;&gt;N27</title>
<path fill="none" stroke="black" d="M872.12,-647.97C882.03,-631.3 897.28,-605.65 908.86,-586.16"/>
<polygon fill="black" stroke="black" points="911.82,-588.03 913.92,-577.64 905.8,-584.45 911.82,-588.03"/>
</g>
<!-- N0 -->
<g id="node28" class="node">
<title>N0</title>
<polygon fill="none" stroke="black" points="506,-900 442,-900 442,-864 506,-864 506,-900"/>
<text text-anchor="middle" x="474" y="-878.3" font-family="Times,serif" font-size="14.00">Program</text>
</g>
<!-- N0&#45;&gt;N1 -->
<g id="edge27" class="edge">
<title>N0&#45;&gt;N1</title>
<path fill="none" stroke="black" d="M474,-863.97C474,-847.76 474,-823.06 474,-803.79"/>
<polygon fill="black" stroke="black" points="477.5,-803.85 474,-793.85 470.5,-803.85 477.5,-803.85"/>
</g>
</g>
</svg>
