<?xml version="1.0" encoding="UTF-8" standalone="no"?>
<!DOCTYPE svg PUBLIC "-//W3C//DTD SVG 1.1//EN"
 "http://www.w3.org/Graphics/SVG/1.1/DTD/svg11.dtd">
<!-- Generated by graphviz version 2.43.0 (0)
 -->
<!-- Title: %41 Pages: 1 -->
<svg width="425pt" height="116pt"
 viewBox="0.00 0.00 425.00 116.00" xmlns="http://www.w3.org/2000/svg" xmlns:xlink="http://www.w3.org/1999/xlink">
<g id="page0,1_graph0" class="graph" transform="scale(1 1) rotate(0) translate(4 112)">
<title>%41</title>
<polygon fill="white" stroke="transparent" points="-4,4 -4,-112 421,-112 421,4 -4,4"/>
<!-- N1 -->
<g id="node1" class="node">
<title>N1</title>
<polygon fill="none" stroke="black" points="247.5,-108 169.5,-108 169.5,-72 247.5,-72 247.5,-108"/>
<text text-anchor="middle" x="208.5" y="-86.3" font-family="Times,serif" font-size="14.00">InstrList</text>
</g>
<!-- N2 -->
<g id="node2" class="node">
<title>N2</title>
<polygon fill="none" stroke="black" points="109,-36 0,-36 0,0 109,0 109,-36"/>
<text text-anchor="middle" x="54.5" y="-14.3" font-family="Times,serif" font-size="14.00">Instruction 1</text>
</g>
<!-- N2&#45;&gt;N1 -->
<g id="edge1" class="edge">
<title>N2&#45;&gt;N1</title>
<path fill="none" stroke="black" d="M92.17,-36.12C113.13,-45.65 139.4,-57.59 161.68,-67.72"/>
<polygon fill="black" stroke="black" points="160.4,-70.98 170.95,-71.93 163.29,-64.61 160.4,-70.98"/>
</g>
<!-- N3 -->
<g id="node3" class="node">
<title>N3</title>
<text text-anchor="middle" x="208.5" y="-14.3" font-family="Times,serif" font-size="14.00">...</text>
</g>
<!-- N3&#45;&gt;N1 -->
<!-- N4 -->
<g id="node4" class="node">
<title>N4</title>
<polygon fill="none" stroke="black" points="417,-36 308,-36 308,0 417,0 417,-36"/>
<text text-anchor="middle" x="362.5" y="-14.3" font-family="Times,serif" font-size="14.00">Instruction n</text>
</g>
<!-- N4&#45;&gt;N1 -->
<g id="edge3" class="edge">
<title>N4&#45;&gt;N1</title>
<path fill="none" stroke="black" d="M324.83,-36.12C303.87,-45.65 277.6,-57.59 255.32,-67.72"/>
<polygon fill="black" stroke="black" points="253.71,-64.61 246.05,-71.93 256.6,-70.98 253.71,-64.61"/>
</g>
</g>
</svg>
