<?xml version="1.0" encoding="UTF-8" standalone="no"?>
<!DOCTYPE svg PUBLIC "-//W3C//DTD SVG 1.1//EN"
 "http://www.w3.org/Graphics/SVG/1.1/DTD/svg11.dtd">
<!-- Generated by graphviz version 2.43.0 (0)
 -->
<!-- Title: %49 Pages: 1 -->
<svg width="630pt" height="116pt"
 viewBox="0.00 0.00 630.00 116.00" xmlns="http://www.w3.org/2000/svg" xmlns:xlink="http://www.w3.org/1999/xlink">
<g id="page0,1_graph0" class="graph" transform="scale(1 1) rotate(0) translate(4 112)">
<title>%49</title>
<polygon fill="white" stroke="transparent" points="-4,4 -4,-112 626,-112 626,4 -4,4"/>
<!-- N1 -->
<g id="node1" class="node">
<title>N1</title>
<polygon fill="none" stroke="black" points="145,-108 83,-108 83,-72 145,-72 145,-108"/>
<text text-anchor="middle" x="114" y="-86.3" font-family="Times,serif" font-size="14.00">IfThen</text>
</g>
<!-- N2 -->
<g id="node2" class="node">
<title>N2</title>
<polygon fill="none" stroke="black" points="515.5,-108 422.5,-108 422.5,-72 515.5,-72 515.5,-108"/>
<text text-anchor="middle" x="469" y="-86.3" font-family="Times,serif" font-size="14.00">IfThenElse</text>
</g>
<!-- N3 -->
<g id="node3" class="node">
<title>N3</title>
<polygon fill="none" stroke="black" points="86,-36 0,-36 0,0 86,0 86,-36"/>
<text text-anchor="middle" x="43" y="-14.3" font-family="Times,serif" font-size="14.00">Condition</text>
</g>
<!-- N3&#45;&gt;N1 -->
<g id="edge1" class="edge">
<title>N3&#45;&gt;N1</title>
<path fill="none" stroke="black" d="M60.55,-36.3C69.23,-44.86 79.86,-55.34 89.35,-64.7"/>
<polygon fill="black" stroke="black" points="87.07,-67.37 96.65,-71.9 91.99,-62.38 87.07,-67.37"/>
</g>
<!-- N4 -->
<g id="node4" class="node">
<title>N4</title>
<polygon fill="none" stroke="black" points="212,-36 158,-36 158,0 212,0 212,-36"/>
<text text-anchor="middle" x="185" y="-14.3" font-family="Times,serif" font-size="14.00">Then</text>
</g>
<!-- N4&#45;&gt;N1 -->
<g id="edge2" class="edge">
<title>N4&#45;&gt;N1</title>
<path fill="none" stroke="black" d="M167.45,-36.3C158.77,-44.86 148.14,-55.34 138.65,-64.7"/>
<polygon fill="black" stroke="black" points="136.01,-62.38 131.35,-71.9 140.93,-67.37 136.01,-62.38"/>
</g>
<!-- N5 -->
<g id="node5" class="node">
<title>N5</title>
<polygon fill="none" stroke="black" points="370,-36 284,-36 284,0 370,0 370,-36"/>
<text text-anchor="middle" x="327" y="-14.3" font-family="Times,serif" font-size="14.00">Condition</text>
</g>
<!-- N5&#45;&gt;N2 -->
<g id="edge3" class="edge">
<title>N5&#45;&gt;N2</title>
<path fill="none" stroke="black" d="M361.74,-36.12C380.82,-45.53 404.68,-57.29 425.05,-67.33"/>
<polygon fill="black" stroke="black" points="423.61,-70.53 434.13,-71.81 426.71,-64.25 423.61,-70.53"/>
</g>
<!-- N6 -->
<g id="node6" class="node">
<title>N6</title>
<polygon fill="none" stroke="black" points="496,-36 442,-36 442,0 496,0 496,-36"/>
<text text-anchor="middle" x="469" y="-14.3" font-family="Times,serif" font-size="14.00">Then</text>
</g>
<!-- N6&#45;&gt;N2 -->
<g id="edge4" class="edge">
<title>N6&#45;&gt;N2</title>
<path fill="none" stroke="black" d="M469,-36.3C469,-44.02 469,-53.29 469,-61.89"/>
<polygon fill="black" stroke="black" points="465.5,-61.9 469,-71.9 472.5,-61.9 465.5,-61.9"/>
</g>
<!-- N7 -->
<g id="node7" class="node">
<title>N7</title>
<polygon fill="none" stroke="black" points="622,-36 568,-36 568,0 622,0 622,-36"/>
<text text-anchor="middle" x="595" y="-14.3" font-family="Times,serif" font-size="14.00">Else</text>
</g>
<!-- N7&#45;&gt;N2 -->
<g id="edge5" class="edge">
<title>N7&#45;&gt;N2</title>
<path fill="none" stroke="black" d="M567.97,-34.02C550.74,-43.59 528.11,-56.16 508.84,-66.86"/>
<polygon fill="black" stroke="black" points="507.02,-63.87 499.98,-71.79 510.42,-69.99 507.02,-63.87"/>
</g>
</g>
</svg>
