<?xml version="1.0" encoding="UTF-8" standalone="no"?>
<!DOCTYPE svg PUBLIC "-//W3C//DTD SVG 1.1//EN"
 "http://www.w3.org/Graphics/SVG/1.1/DTD/svg11.dtd">
<!-- Generated by graphviz version 2.43.0 (0)
 -->
<!-- Title: %3 Pages: 1 -->
<svg width="251pt" height="260pt"
 viewBox="0.00 0.00 251.00 260.00" xmlns="http://www.w3.org/2000/svg" xmlns:xlink="http://www.w3.org/1999/xlink">
<g id="graph0" class="graph" transform="scale(1 1) rotate(0) translate(4 256)">
<title>%3</title>
<polygon fill="white" stroke="transparent" points="-4,4 -4,-256 247,-256 247,4 -4,4"/>
<!-- N1 -->
<g id="node1" class="node">
<title>N1</title>
<polygon fill="none" stroke="black" points="180,-252 126,-252 126,-216 180,-216 180,-252"/>
<text text-anchor="middle" x="153" y="-230.3" font-family="Times,serif" font-size="14.00">+</text>
</g>
<!-- N2 -->
<g id="node2" class="node">
<title>N2</title>
<polygon fill="none" stroke="black" points="117,-180 63,-180 63,-144 117,-144 117,-180"/>
<text text-anchor="middle" x="90" y="-158.3" font-family="Times,serif" font-size="14.00">+</text>
</g>
<!-- N2&#45;&gt;N1 -->
<g id="edge1" class="edge">
<title>N2&#45;&gt;N1</title>
<path fill="none" stroke="black" d="M105.57,-180.3C113.2,-188.78 122.52,-199.14 130.88,-208.42"/>
<polygon fill="black" stroke="black" points="128.31,-210.8 137.61,-215.9 133.52,-206.12 128.31,-210.8"/>
</g>
<!-- N3 -->
<g id="node3" class="node">
<title>N3</title>
<polygon fill="none" stroke="black" points="243,-180 189,-180 189,-144 243,-144 243,-180"/>
<text text-anchor="middle" x="216" y="-158.3" font-family="Times,serif" font-size="14.00">4</text>
</g>
<!-- N3&#45;&gt;N1 -->
<g id="edge2" class="edge">
<title>N3&#45;&gt;N1</title>
<path fill="none" stroke="black" d="M200.43,-180.3C192.8,-188.78 183.48,-199.14 175.12,-208.42"/>
<polygon fill="black" stroke="black" points="172.48,-206.12 168.39,-215.9 177.69,-210.8 172.48,-206.12"/>
</g>
<!-- N4 -->
<g id="node4" class="node">
<title>N4</title>
<polygon fill="none" stroke="black" points="54,-108 0,-108 0,-72 54,-72 54,-108"/>
<text text-anchor="middle" x="27" y="-86.3" font-family="Times,serif" font-size="14.00">1</text>
</g>
<!-- N4&#45;&gt;N2 -->
<g id="edge3" class="edge">
<title>N4&#45;&gt;N2</title>
<path fill="none" stroke="black" d="M42.57,-108.3C50.2,-116.78 59.52,-127.14 67.88,-136.42"/>
<polygon fill="black" stroke="black" points="65.31,-138.8 74.61,-143.9 70.52,-134.12 65.31,-138.8"/>
</g>
<!-- N5 -->
<g id="node5" class="node">
<title>N5</title>
<polygon fill="none" stroke="black" points="180,-108 126,-108 126,-72 180,-72 180,-108"/>
<text text-anchor="middle" x="153" y="-86.3" font-family="Times,serif" font-size="14.00">*</text>
</g>
<!-- N5&#45;&gt;N2 -->
<g id="edge4" class="edge">
<title>N5&#45;&gt;N2</title>
<path fill="none" stroke="black" d="M137.43,-108.3C129.8,-116.78 120.48,-127.14 112.12,-136.42"/>
<polygon fill="black" stroke="black" points="109.48,-134.12 105.39,-143.9 114.69,-138.8 109.48,-134.12"/>
</g>
<!-- N6 -->
<g id="node6" class="node">
<title>N6</title>
<polygon fill="none" stroke="black" points="117,-36 63,-36 63,0 117,0 117,-36"/>
<text text-anchor="middle" x="90" y="-14.3" font-family="Times,serif" font-size="14.00">2</text>
</g>
<!-- N6&#45;&gt;N5 -->
<g id="edge5" class="edge">
<title>N6&#45;&gt;N5</title>
<path fill="none" stroke="black" d="M105.57,-36.3C113.2,-44.78 122.52,-55.14 130.88,-64.42"/>
<polygon fill="black" stroke="black" points="128.31,-66.8 137.61,-71.9 133.52,-62.12 128.31,-66.8"/>
</g>
<!-- N7 -->
<g id="node7" class="node">
<title>N7</title>
<polygon fill="none" stroke="black" points="243,-36 189,-36 189,0 243,0 243,-36"/>
<text text-anchor="middle" x="216" y="-14.3" font-family="Times,serif" font-size="14.00">3</text>
</g>
<!-- N7&#45;&gt;N5 -->
<g id="edge6" class="edge">
<title>N7&#45;&gt;N5</title>
<path fill="none" stroke="black" d="M200.43,-36.3C192.8,-44.78 183.48,-55.14 175.12,-64.42"/>
<polygon fill="black" stroke="black" points="172.48,-62.12 168.39,-71.9 177.69,-66.8 172.48,-62.12"/>
</g>
</g>
</svg>
