<?xml version="1.0" encoding="UTF-8" standalone="no"?>
<!DOCTYPE svg PUBLIC "-//W3C//DTD SVG 1.1//EN"
 "http://www.w3.org/Graphics/SVG/1.1/DTD/svg11.dtd">
<!-- Generated by graphviz version 2.43.0 (0)
 -->
<!-- Title: %17 Pages: 1 -->
<svg width="629pt" height="332pt"
 viewBox="0.00 0.00 629.00 332.00" xmlns="http://www.w3.org/2000/svg" xmlns:xlink="http://www.w3.org/1999/xlink">
<g id="page0,1_graph0" class="graph" transform="scale(1 1) rotate(0) translate(4 328)">
<title>%17</title>
<polygon fill="white" stroke="transparent" points="-4,4 -4,-328 625,-328 625,4 -4,4"/>
<!-- N0 -->
<g id="node1" class="node">
<title>N0</title>
</g>
<!-- N11 -->
<g id="node2" class="node">
<title>N11</title>
<polygon fill="none" stroke="black" points="216,-252 162,-252 162,-216 216,-216 216,-252"/>
<text text-anchor="middle" x="189" y="-230.3" font-family="Times,serif" font-size="14.00">*</text>
</g>
<!-- N11&#45;&gt;N0 -->
<!-- N12 -->
<g id="node3" class="node">
<title>N12</title>
<polygon fill="none" stroke="black" points="54,-180 0,-180 0,-144 54,-144 54,-180"/>
<text text-anchor="middle" x="27" y="-158.3" font-family="Times,serif" font-size="14.00">3</text>
</g>
<!-- N12&#45;&gt;N11 -->
<g id="edge3" class="edge">
<title>N12&#45;&gt;N11</title>
<path fill="none" stroke="black" d="M54.12,-174.72C81.1,-186.38 122.68,-204.35 152.55,-217.25"/>
<polygon fill="black" stroke="black" points="151.23,-220.49 161.8,-221.25 154,-214.07 151.23,-220.49"/>
</g>
<!-- N13 -->
<g id="node4" class="node">
<title>N13</title>
<polygon fill="none" stroke="black" points="216,-180 162,-180 162,-144 216,-144 216,-180"/>
<text text-anchor="middle" x="189" y="-158.3" font-family="Times,serif" font-size="14.00">+</text>
</g>
<!-- N13&#45;&gt;N11 -->
<g id="edge4" class="edge">
<title>N13&#45;&gt;N11</title>
<path fill="none" stroke="black" d="M189,-180.3C189,-188.02 189,-197.29 189,-205.89"/>
<polygon fill="black" stroke="black" points="185.5,-205.9 189,-215.9 192.5,-205.9 185.5,-205.9"/>
</g>
<!-- N14 -->
<g id="node5" class="node">
<title>N14</title>
<polygon fill="none" stroke="black" points="135,-108 81,-108 81,-72 135,-72 135,-108"/>
<text text-anchor="middle" x="108" y="-86.3" font-family="Times,serif" font-size="14.00">4</text>
</g>
<!-- N14&#45;&gt;N13 -->
<g id="edge5" class="edge">
<title>N14&#45;&gt;N13</title>
<path fill="none" stroke="black" d="M128.02,-108.3C138.13,-117.03 150.54,-127.76 161.52,-137.25"/>
<polygon fill="black" stroke="black" points="159.35,-140.01 169.21,-143.9 163.93,-134.71 159.35,-140.01"/>
</g>
<!-- N15 -->
<g id="node6" class="node">
<title>N15</title>
<polygon fill="none" stroke="black" points="297,-108 243,-108 243,-72 297,-72 297,-108"/>
<text text-anchor="middle" x="270" y="-86.3" font-family="Times,serif" font-size="14.00">5</text>
</g>
<!-- N15&#45;&gt;N13 -->
<g id="edge6" class="edge">
<title>N15&#45;&gt;N13</title>
<path fill="none" stroke="black" d="M249.98,-108.3C239.87,-117.03 227.46,-127.76 216.48,-137.25"/>
<polygon fill="black" stroke="black" points="214.07,-134.71 208.79,-143.9 218.65,-140.01 214.07,-134.71"/>
</g>
<!-- N21 -->
<g id="node7" class="node">
<title>N21</title>
<polygon fill="none" stroke="black" points="378,-252 324,-252 324,-216 378,-216 378,-252"/>
<text text-anchor="middle" x="351" y="-230.3" font-family="Times,serif" font-size="14.00">*</text>
</g>
<!-- N21&#45;&gt;N0 -->
<!-- N22 -->
<g id="node8" class="node">
<title>N22</title>
<polygon fill="none" stroke="black" points="378,-180 324,-180 324,-144 378,-144 378,-180"/>
<text text-anchor="middle" x="351" y="-158.3" font-family="Times,serif" font-size="14.00">3</text>
</g>
<!-- N22&#45;&gt;N21 -->
<g id="edge7" class="edge">
<title>N22&#45;&gt;N21</title>
<path fill="none" stroke="black" d="M351,-180.3C351,-188.02 351,-197.29 351,-205.89"/>
<polygon fill="black" stroke="black" points="347.5,-205.9 351,-215.9 354.5,-205.9 347.5,-205.9"/>
</g>
<!-- N26 -->
<g id="node9" class="node">
<title>N26</title>
<polygon fill="none" stroke="black" points="540,-180 486,-180 486,-144 540,-144 540,-180"/>
<text text-anchor="middle" x="513" y="-158.3" font-family="Times,serif" font-size="14.00">(...)</text>
</g>
<!-- N26&#45;&gt;N21 -->
<g id="edge9" class="edge">
<title>N26&#45;&gt;N21</title>
<path fill="none" stroke="black" d="M485.88,-174.72C458.9,-186.38 417.32,-204.35 387.45,-217.25"/>
<polygon fill="black" stroke="black" points="386,-214.07 378.2,-221.25 388.77,-220.49 386,-214.07"/>
</g>
<!-- N23 -->
<g id="node10" class="node">
<title>N23</title>
<polygon fill="none" stroke="black" points="540,-108 486,-108 486,-72 540,-72 540,-108"/>
<text text-anchor="middle" x="513" y="-86.3" font-family="Times,serif" font-size="14.00">+</text>
</g>
<!-- N23&#45;&gt;N26 -->
<g id="edge8" class="edge">
<title>N23&#45;&gt;N26</title>
<path fill="none" stroke="black" d="M513,-108.3C513,-116.02 513,-125.29 513,-133.89"/>
<polygon fill="black" stroke="black" points="509.5,-133.9 513,-143.9 516.5,-133.9 509.5,-133.9"/>
</g>
<!-- N24 -->
<g id="node11" class="node">
<title>N24</title>
<polygon fill="none" stroke="black" points="459,-36 405,-36 405,0 459,0 459,-36"/>
<text text-anchor="middle" x="432" y="-14.3" font-family="Times,serif" font-size="14.00">4</text>
</g>
<!-- N24&#45;&gt;N23 -->
<g id="edge10" class="edge">
<title>N24&#45;&gt;N23</title>
<path fill="none" stroke="black" d="M452.02,-36.3C462.13,-45.03 474.54,-55.76 485.52,-65.25"/>
<polygon fill="black" stroke="black" points="483.35,-68.01 493.21,-71.9 487.93,-62.71 483.35,-68.01"/>
</g>
<!-- N25 -->
<g id="node12" class="node">
<title>N25</title>
<polygon fill="none" stroke="black" points="621,-36 567,-36 567,0 621,0 621,-36"/>
<text text-anchor="middle" x="594" y="-14.3" font-family="Times,serif" font-size="14.00">5</text>
</g>
<!-- N25&#45;&gt;N23 -->
<g id="edge11" class="edge">
<title>N25&#45;&gt;N23</title>
<path fill="none" stroke="black" d="M573.98,-36.3C563.87,-45.03 551.46,-55.76 540.48,-65.25"/>
<polygon fill="black" stroke="black" points="538.07,-62.71 532.79,-71.9 542.65,-68.01 538.07,-62.71"/>
</g>
</g>
</svg>
