<?xml version="1.0" encoding="UTF-8" standalone="no"?>
<!DOCTYPE svg PUBLIC "-//W3C//DTD SVG 1.1//EN"
 "http://www.w3.org/Graphics/SVG/1.1/DTD/svg11.dtd">
<!-- Generated by graphviz version 2.43.0 (0)
 -->
<!-- Title: %69 Pages: 1 -->
<svg width="314pt" height="260pt"
 viewBox="0.00 0.00 314.00 260.00" xmlns="http://www.w3.org/2000/svg" xmlns:xlink="http://www.w3.org/1999/xlink">
<g id="page0,1_graph0" class="graph" transform="scale(1 1) rotate(0) translate(4 256)">
<title>%69</title>
<polygon fill="white" stroke="transparent" points="-4,4 -4,-256 310,-256 310,4 -4,4"/>
<!-- N1 -->
<g id="node1" class="node">
<title>N1</title>
<polygon fill="none" stroke="black" points="119,-252 61,-252 61,-216 119,-216 119,-252"/>
<text text-anchor="middle" x="90" y="-230.3" font-family="Times,serif" font-size="14.00">Affect</text>
</g>
<!-- N2 -->
<g id="node2" class="node">
<title>N2</title>
<polygon fill="none" stroke="black" points="54,-180 0,-180 0,-144 54,-144 54,-180"/>
<text text-anchor="middle" x="27" y="-158.3" font-family="Times,serif" font-size="14.00">a</text>
</g>
<!-- N2&#45;&gt;N1 -->
<g id="edge1" class="edge">
<title>N2&#45;&gt;N1</title>
<path fill="none" stroke="black" d="M42.57,-180.3C50.2,-188.78 59.52,-199.14 67.88,-208.42"/>
<polygon fill="black" stroke="black" points="65.31,-210.8 74.61,-215.9 70.52,-206.12 65.31,-210.8"/>
</g>
<!-- N3 -->
<g id="node3" class="node">
<title>N3</title>
<polygon fill="none" stroke="black" points="180,-180 126,-180 126,-144 180,-144 180,-180"/>
<text text-anchor="middle" x="153" y="-158.3" font-family="Times,serif" font-size="14.00">+</text>
</g>
<!-- N3&#45;&gt;N1 -->
<g id="edge2" class="edge">
<title>N3&#45;&gt;N1</title>
<path fill="none" stroke="black" d="M137.43,-180.3C129.8,-188.78 120.48,-199.14 112.12,-208.42"/>
<polygon fill="black" stroke="black" points="109.48,-206.12 105.39,-215.9 114.69,-210.8 109.48,-206.12"/>
</g>
<!-- N5 -->
<g id="node4" class="node">
<title>N5</title>
<polygon fill="none" stroke="black" points="117,-108 63,-108 63,-72 117,-72 117,-108"/>
<text text-anchor="middle" x="90" y="-86.3" font-family="Times,serif" font-size="14.00">3</text>
</g>
<!-- N5&#45;&gt;N3 -->
<g id="edge3" class="edge">
<title>N5&#45;&gt;N3</title>
<path fill="none" stroke="black" d="M105.57,-108.3C113.2,-116.78 122.52,-127.14 130.88,-136.42"/>
<polygon fill="black" stroke="black" points="128.31,-138.8 137.61,-143.9 133.52,-134.12 128.31,-138.8"/>
</g>
<!-- N4 -->
<g id="node5" class="node">
<title>N4</title>
<polygon fill="none" stroke="black" points="243,-108 189,-108 189,-72 243,-72 243,-108"/>
<text text-anchor="middle" x="216" y="-86.3" font-family="Times,serif" font-size="14.00">*</text>
</g>
<!-- N4&#45;&gt;N3 -->
<g id="edge4" class="edge">
<title>N4&#45;&gt;N3</title>
<path fill="none" stroke="black" d="M200.43,-108.3C192.8,-116.78 183.48,-127.14 175.12,-136.42"/>
<polygon fill="black" stroke="black" points="172.48,-134.12 168.39,-143.9 177.69,-138.8 172.48,-134.12"/>
</g>
<!-- N6 -->
<g id="node6" class="node">
<title>N6</title>
<polygon fill="none" stroke="black" points="180,-36 126,-36 126,0 180,0 180,-36"/>
<text text-anchor="middle" x="153" y="-14.3" font-family="Times,serif" font-size="14.00">4</text>
</g>
<!-- N6&#45;&gt;N4 -->
<g id="edge5" class="edge">
<title>N6&#45;&gt;N4</title>
<path fill="none" stroke="black" d="M168.57,-36.3C176.2,-44.78 185.52,-55.14 193.88,-64.42"/>
<polygon fill="black" stroke="black" points="191.31,-66.8 200.61,-71.9 196.52,-62.12 191.31,-66.8"/>
</g>
<!-- N7 -->
<g id="node7" class="node">
<title>N7</title>
<polygon fill="none" stroke="black" points="306,-36 252,-36 252,0 306,0 306,-36"/>
<text text-anchor="middle" x="279" y="-14.3" font-family="Times,serif" font-size="14.00">5</text>
</g>
<!-- N7&#45;&gt;N4 -->
<g id="edge6" class="edge">
<title>N7&#45;&gt;N4</title>
<path fill="none" stroke="black" d="M263.43,-36.3C255.8,-44.78 246.48,-55.14 238.12,-64.42"/>
<polygon fill="black" stroke="black" points="235.48,-62.12 231.39,-71.9 240.69,-66.8 235.48,-62.12"/>
</g>
</g>
</svg>
